#!OML:ASF X:\für Bonn\!DataBase\2005_08_10_Bjorn_Final\c3d\bjorn.ASF
:FULLY-SPECIFIED
:DEGREES
33
root 0.564214 18.074 2.91196 -178.55 1.40179 177.278
lowerback 8.96813 1.43043 -1.0531
upperback 6.43263 2.59466 -1.93004
thorax 1.69854 1.62045 -1.58145
lowerneck -14.626 -2.02507 2.72631
upperneck 9.79941 -2.98598 -2.24578
head 5.25918 -1.51837 -1.4026
rclavicle 1.2921e-014 -1.68967e-014
rhumerus 76.7097 1.56335 -84.9974
rradius 5.74571
rwrist 51.6815
rhand -17.2534 8.80359
rfingers 7.12502
rthumb 8.99084 -20.9848
lclavicle 1.2921e-014 -1.68967e-014
lhumerus 79.2945 -11.5428 85.28
lradius 4.60934
lwrist -74.7454
lhand -12.9007 -3.06232
lfingers 7.12502
lthumb 13.1889 26.5005
rfemur -25.6272 -8.03807 15.0138
rtibia 54.6314
rfoot -25.5955 16.1476
rtoes -13.5015
lfemur -25.4379 8.44415 -21.401
ltibia 56.5846
lfoot -22.0673 -3.38999
ltoes -10.2772
34
root 0.565875 17.9461 2.96592 -178.742 1.34169 177.19
lowerback 9.90381 1.3546 -1.12989
upperback 6.65171 2.54489 -1.96581
thorax 1.41571 1.62577 -1.60409
lowerneck -14.8441 -2.0115 2.80508
upperneck 9.25931 -2.98535 -2.29413
head 5.12367 -1.52247 -1.42671
rclavicle 3.19049e-014 -3.67752e-014
rhumerus 77.1473 1.49417 -84.9185
rradius 5.93806
rwrist 51.6678
rhand -17.1371 8.77179
rfingers 7.12502
rthumb 9.10304 -21.0118
lclavicle 3.19049e-014 -3.67752e-014
lhumerus 79.9714 -11.4244 85.0629
lradius 4.72535
lwrist -73.7119
lhand -12.8332 -3.5442
lfingers 7.12502
lthumb 13.254 26.0144
rfemur -26.728 -8.12994 14.9119
rtibia 56.7294
rfoot -26.2307 16.2659
rtoes -13.6006
lfemur -26.6715 8.36734 -21.5436
ltibia 58.8833
lfoot -22.4503 -3.05312
ltoes -11.699
35
root 0.56795 17.8093 3.0209 -178.924 1.28053 177.121
lowerback 10.8019 1.27954 -1.15848
upperback 6.88894 2.50731 -2.03146
thorax 1.17899 1.6422 -1.68318
lowerneck -15.0608 -1.99358 2.96511
upperneck 8.7067 -2.9994 -2.3451
head 4.98244 -1.53282 -1.46584
rclavicle 1.55549e-014 9.93923e-016
rhumerus 77.6604 1.3451 -84.8699
rradius 6.08948
rwrist 51.578
rhand -16.8974 8.80026
rfingers 7.12502
rthumb 9.33431 -20.9731
lclavicle 1.55549e-014 9.93923e-016
lhumerus 80.6893 -11.3193 84.7887
lradius 4.87359
lwrist -72.7486
lhand -12.8685 -4.02699
lfingers 7.12502
lthumb 13.22 25.5338
rfemur -27.8919 -8.20804 14.8359
rtibia 58.9092
rfoot -26.8834 16.3777
rtoes -13.6336
lfemur -27.9584 8.31198 -21.659
ltibia 61.2334
lfoot -22.8339 -2.76036
ltoes -13.1758
36
root 0.569496 17.6627 3.07685 -179.075 1.21095 177.051
lowerback 11.654 1.19708 -1.21723
upperback 7.14045 2.46105 -2.05898
thorax 0.982055 1.65371 -1.70242
lowerneck -15.3543 -1.98108 3.0066
upperneck 8.1855 -3.00846 -2.35455
head 4.86608 -1.54393 -1.47425
rclavicle -1.4064e-014 9.93923e-015
rhumerus 78.1907 1.24439 -84.7701
rradius 6.30486
rwrist 51.5598
rhand -16.5785 8.85602
rfingers 7.12502
rthumb 9.64207 -20.9033
lclavicle -1.4064e-014 9.93923e-015
lhumerus 81.445 -11.1788 84.572
lradius 5.02204
lwrist -71.8269
lhand -12.9653 -4.49398
lfingers 7.12502
lthumb 13.1266 25.0729
rfemur -29.1364 -8.31492 14.7589
rtibia 61.1508
rfoot -27.4663 16.5427
rtoes -13.5664
lfemur -29.3068 8.22992 -21.769
ltibia 63.6327
lfoot -23.2091 -2.55051
ltoes -14.401
37
root 0.570867 17.5087 3.13218 -179.226 1.14114 176.981
lowerback 12.4863 1.10762 -1.2568
upperback 7.40469 2.41431 -2.11107
thorax 0.814095 1.66897 -1.7562
lowerneck -15.6288 -1.95692 3.12051
upperneck 7.63598 -3.01919 -2.38086
head 4.73631 -1.55676 -1.49918
rclavicle -5.96354e-016 1.0138e-014
rhumerus 78.8288 1.1062 -84.6947
rradius 6.42714
rwrist 51.5023
rhand -16.2162 8.93474
rfingers 7.12502
rthumb 9.99158 -20.8081
lclavicle -5.96354e-016 1.0138e-014
lhumerus 82.2236 -11.0175 84.3106
lradius 5.19625
lwrist -70.9297
lhand -13.0743 -4.91271
lfingers 7.12502
lthumb 13.0216 24.6609
rfemur -30.4161 -8.44136 14.6785
rtibia 63.4442
rfoot -28.036 16.7138
rtoes -13.4715
lfemur -30.6815 8.14033 -21.8709
ltibia 66.0689
lfoot -23.5475 -2.37976
ltoes -15.5794
38
root 0.572007 17.3485 3.18672 -179.328 1.08178 176.928
lowerback 13.3406 1.03156 -1.28493
upperback 7.56575 2.36475 -2.1487
thorax 0.528039 1.67524 -1.80461
lowerneck -15.757 -1.93414 3.18235
upperneck 7.12509 -3.02141 -2.3768
head 4.5967 -1.56486 -1.50398
rclavicle 2.16178e-014 -3.61788e-014
rhumerus 79.4344 1.00344 -84.6086
rradius 6.34286
rwrist 51.8674
rhand -16.1824 8.98737
rfingers 7.12502
rthumb 10.0242 -20.7539
lclavicle 2.16178e-014 -3.61788e-014
lhumerus 82.8942 -10.8718 84.0947
lradius 5.29747
lwrist -70.1039
lhand -13.2388 -5.24246
lfingers 7.12502
lthumb 12.863 24.3412
rfemur -31.7768 -8.55616 14.6246
rtibia 65.7803
rfoot -28.4897 16.9845
rtoes -12.8235
lfemur -32.1408 8.05694 -21.9389
ltibia 68.5486
lfoot -23.8848 -2.30418
ltoes -16.6336
39
root 0.573361 17.1801 3.24024 -179.44 1.05286 176.876
lowerback 14.2015 0.972455 -1.32431
upperback 7.71812 2.33608 -2.1777
thorax 0.231943 1.69158 -1.84065
lowerneck -15.8884 -1.91895 3.21915
upperneck 6.63393 -3.03284 -2.35517
head 4.46423 -1.57803 -1.50047
rclavicle 9.74045e-015 1.69961e-014
rhumerus 80.0688 0.846054 -84.4873
rradius 6.11925
rwrist 52.6174
rhand -16.4426 9.00116
rfingers 7.12502
rthumb 9.7732 -20.7521
lclavicle 9.74045e-015 1.69961e-014
lhumerus 83.5128 -10.7091 83.9
lradius 5.45406
lwrist -69.3156
lhand -13.3757 -5.47183
lfingers 7.12502
lthumb 12.731 24.1201
rfemur -33.1602 -8.63259 14.5643
rtibia 68.1601
rfoot -28.8633 17.365
rtoes -11.7404
lfemur -33.5921 7.98361 -21.9924
ltibia 71.0538
lfoot -24.2469 -2.25239
ltoes -17.7599
40
root 0.574424 17.0036 3.29168 -179.522 0.99373 176.822
lowerback 14.9973 0.902186 -1.35701
upperback 7.86794 2.29355 -2.20825
thorax -0.0295374 1.70072 -1.87736
lowerneck -16.0174 -1.90059 3.26263
upperneck 6.18492 -3.04224 -2.33346
head 4.34456 -1.59037 -1.49838
rclavicle 4.42296e-015 -2.83268e-014
rhumerus 80.6842 0.703036 -84.377
rradius 5.87896
rwrist 53.1737
rhand -16.7153 9.04263
rfingers 7.12502
rthumb 9.51004 -20.7228
lclavicle 4.42296e-015 -2.83268e-014
lhumerus 84.1527 -10.556 83.7081
lradius 5.58812
lwrist -68.5713
lhand -13.5412 -5.49551
lfingers 7.12502
lthumb 12.5715 24.1063
rfemur -34.5997 -8.76621 14.4948
rtibia 70.5888
rfoot -29.2012 17.7659
rtoes -10.7746
lfemur -35.0941 7.89937 -22.0394
ltibia 73.5837
lfoot -24.5717 -2.18495
ltoes -19.0373
41
root 0.575355 16.8177 3.34317 -179.635 0.912486 176.768
lowerback 15.807 0.817233 -1.39465
upperback 8.03665 2.2379 -2.23241
thorax -0.276199 1.70602 -1.90231
lowerneck -16.2163 -1.87336 3.23709
upperneck 5.78813 -3.03834 -2.21604
head 4.25508 -1.5925 -1.45626
rclavicle -7.30534e-015 -1.12313e-014
rhumerus 81.2873 0.560604 -84.2633
rradius 5.60869
rwrist 53.3616
rhand -17.0337 9.1528
rfingers 7.12502
rthumb 9.20285 -20.6264
lclavicle -7.30534e-015 -1.12313e-014
lhumerus 84.8299 -10.3675 83.5157
lradius 5.72748
lwrist -67.7882
lhand -13.6419 -5.4733
lfingers 7.12502
lthumb 12.4744 24.1344
rfemur -36.0376 -8.92877 14.4127
rtibia 73.0624
rfoot -29.5649 18.0896
rtoes -10.5331
lfemur -36.5804 7.79119 -22.0744
ltibia 76.1283
lfoot -24.8896 -2.10927
ltoes -20.4625
42
root 0.576867 16.6238 3.39166 -179.768 0.830121 176.681
lowerback 16.5966 0.739917 -1.48824
upperback 8.20652 2.18612 -2.23787
thorax -0.510286 1.71182 -1.87523
lowerneck -16.2976 -1.85916 3.0902
upperneck 5.32527 -3.03369 -2.00126
head 4.12991 -1.59195 -1.36226
rclavicle -4.17448e-015 -1.17283e-014
rhumerus 81.8562 0.447765 -84.1165
rradius 5.33202
rwrist 53.4176
rhand -17.3551 9.25181
rfingers 7.12502
rthumb 8.89269 -20.5408
lclavicle -4.17448e-015 -1.17283e-014
lhumerus 85.5005 -10.1622 83.3704
lradius 5.82484
lwrist -67.0655
lhand -13.7818 -5.35068
lfingers 7.12502
lthumb 12.3395 24.2652
rfemur -37.4628 -9.08428 14.2726
rtibia 75.5732
rfoot -29.985 18.364
rtoes -10.8183
lfemur -38.0306 7.6439 -22.1259
ltibia 78.6655
lfoot -25.1984 -2.11292
ltoes -21.6876
